HIERARCHY
ROOT Hips
{
	OFFSET -0.001795 -0.223333 0.028219
	CHANNELS 6 Xposition Yposition Zposition Zrotation Yrotation Xrotation 
	JOINT LeftUpLeg
	{
		OFFSET 0.069520 -0.091406 -0.006815
		CHANNELS 3 Zrotation Yrotation Xrotation
		JOINT LeftLeg
		{
			OFFSET 0.034277 -0.375199 -0.004496
			CHANNELS 3 Zrotation Yrotation Xrotation
			JOINT LeftFoot
			{
				OFFSET -0.013596 -0.397961 -0.043693
				CHANNELS 3 Zrotation Yrotation Xrotation
				JOINT LeftToe
				{
					OFFSET 0.026358 -0.055791 0.119288
					CHANNELS 3 Zrotation Yrotation Xrotation
					End Site
					{
						OFFSET 0.000000 0.000000 0.000000
					}
				}
			}
		}
	}
	JOINT RightUpLeg
	{
		OFFSET -0.067670 -0.090522 -0.004320
		CHANNELS 3 Zrotation Yrotation Xrotation
		JOINT RightLeg
		{
			OFFSET -0.038290 -0.382569 -0.008850
			CHANNELS 3 Zrotation Yrotation Xrotation
			JOINT RightFoot
			{
				OFFSET 0.015774 -0.398415 -0.042312
				CHANNELS 3 Zrotation Yrotation Xrotation
				JOINT RightToe
				{
					OFFSET -0.025372 -0.048144 0.123348
					CHANNELS 3 Zrotation Yrotation Xrotation
					End Site
					{
						OFFSET 0.000000 0.000000 0.000000
					}
				}
			}
		}
	}
	JOINT Spine
	{
		OFFSET -0.002533 0.108963 -0.026696
		CHANNELS 3 Zrotation Yrotation Xrotation
		JOINT Spine1
		{
			OFFSET 0.005487 0.135180 0.001092
			CHANNELS 3 Zrotation Yrotation Xrotation
			JOINT Spine2
			{
				OFFSET 0.001457 0.052922 0.025425
				CHANNELS 3 Zrotation Yrotation Xrotation
				JOINT Neck
				{
					OFFSET -0.002778 0.213870 -0.042857
					CHANNELS 3 Zrotation Yrotation Xrotation
					JOINT Head
					{
						OFFSET 0.005152 0.064970 0.051349
						CHANNELS 3 Zrotation Yrotation Xrotation
						End Site
						{
							OFFSET 0.000000 0.000000 0.000000
						}
					}
				}
				JOINT LeftShoulder
				{
					OFFSET 0.078845 0.121749 -0.034090
					CHANNELS 3 Zrotation Yrotation Xrotation
					JOINT LeftArm
					{
						OFFSET 0.090977 0.030469 -0.008868
						CHANNELS 3 Zrotation Yrotation Xrotation
						JOINT LeftForeArm
						{
							OFFSET 0.259612 -0.012772 -0.027456
							CHANNELS 3 Zrotation Yrotation Xrotation
							JOINT LeftHand
							{
								OFFSET 0.249234 0.008986 -0.001171
								CHANNELS 3 Zrotation Yrotation Xrotation
								End Site
								{
									OFFSET 0.000000 0.000000 0.000000
								}
							}
						}
					}
				}
				JOINT RightShoulder
				{
					OFFSET -0.081759 0.118833 -0.038615
					CHANNELS 3 Zrotation Yrotation Xrotation
					JOINT RightArm
					{
						OFFSET -0.096012 0.032551 -0.009143
						CHANNELS 3 Zrotation Yrotation Xrotation
						JOINT RightForeArm
						{
							OFFSET -0.253742 -0.013329 -0.021401
							CHANNELS 3 Zrotation Yrotation Xrotation
							JOINT RightHand
							{
								OFFSET -0.255298 0.007772 -0.005559
								CHANNELS 3 Zrotation Yrotation Xrotation
								End Site
								{
									OFFSET 0.000000 0.000000 0.000000
								}
							}
						}
					}
				}
			}
		}
	}
}
MOTION
Frames: 9
Frame Time: 0.050000
0.000000 0.957872 0.000000 -0.631501 5.046203 -1.127544 5.819860 0.090610 6.595667 -2.834236 0.327822 -7.371689 6.410214 17.821205 42.602714 0.000000 0.000000 0.000000 -3.768174 -0.451948 6.515430 0.936276 -0.287304 -5.483315 -2.390373 -12.658152 36.652134 0.000000 0.000000 0.000000 -1.575289 -0.062847 2.493833 3.782395 -0.258801 -23.647456 -1.838963 -2.370928 31.359075 -0.489871 1.361855 -15.026090 0.000000 0.000000 0.000000 4.012168 10.276928 -3.154090 -8.216068 -18.438636 -1.286222 10.555328 1.205344 0.128530 0.000000 0.000000 0.000000 -14.537161 -5.503002 -1.082641 12.510190 10.360494 -1.323429 -12.211960 0.068211 0.306841 0.000000 0.000000 0.000000 
0.000024 0.956566 0.000238 -0.806272 4.881409 -1.347690 5.862407 0.097839 6.741976 -2.829786 0.327398 -6.724669 6.876207 18.120192 40.474493 0.000000 0.000000 0.000000 -3.746761 -0.507784 7.212719 0.933744 -0.308500 -6.095367 -1.470539 -11.474365 35.702693 0.000000 0.000000 0.000000 -1.506199 -0.048200 1.883955 4.011132 -0.365973 -22.765170 -1.408838 -2.472285 31.860407 -1.146860 1.786775 -14.299047 0.000000 0.000000 0.000000 4.349780 9.238420 -2.789767 -7.564254 -17.355030 -1.282639 7.976716 2.887622 0.149600 0.000000 0.000000 0.000000 -14.882787 -6.713107 -1.332613 13.476394 11.856113 -1.321177 -13.911827 0.107119 0.348413 0.000000 0.000000 0.000000 
0.000029 0.957015 0.000411 -0.590351 5.504018 -0.306625 6.207587 -0.008723 4.877754 -4.059997 0.375890 -5.150682 6.891227 18.115752 38.521176 0.000000 0.000000 0.000000 -3.915537 -0.438202 6.464683 1.456377 -0.322628 -5.408305 -2.244168 -11.758644 31.812232 0.000000 0.000000 0.000000 -1.664630 -0.003351 0.479099 3.237528 -0.164379 -22.466160 -1.597557 -3.500570 31.817181 -0.897267 1.568290 -16.121271 0.000000 0.000000 0.000000 3.556970 8.972364 -2.825810 -7.307962 -16.752712 -1.285530 8.878838 4.221430 0.239582 0.000000 0.000000 0.000000 -13.886129 -6.814643 -1.344383 12.726752 11.021704 -1.357031 -12.698314 -0.133391 0.314699 0.000000 0.000000 0.000000 
0.000086 0.956763 0.000399 -0.719502 5.647119 -0.763401 6.638588 -0.017773 5.687393 -5.042991 0.417400 -5.496122 7.909367 19.010041 37.224815 0.000000 0.000000 0.000000 -4.334725 -0.492223 7.438315 2.103073 -0.391687 -6.250646 -1.341529 -10.656058 32.262578 0.000000 0.000000 0.000000 -1.780095 -0.017098 0.967152 3.648338 -0.269977 -22.488262 -1.467170 -3.784247 32.039482 -1.609903 2.036278 -15.735938 0.000000 0.000000 0.000000 2.340827 10.353366 -3.450248 -6.838699 -18.638489 -1.320129 8.626984 5.507101 0.281737 0.000000 0.000000 0.000000 -13.810681 -7.514123 -1.492176 13.130036 11.669571 -1.351650 -12.744062 -0.236958 0.322732 0.000000 0.000000 0.000000 
0.000122 0.956215 0.000376 -0.838721 5.664877 -0.380986 6.718143 -0.039106 5.305196 -5.327141 0.433969 -5.206975 8.505795 19.522193 35.497136 0.000000 0.000000 0.000000 -4.168319 -0.477321 7.134075 2.174068 -0.406207 -6.635308 -1.762883 -11.246969 32.675214 0.000000 0.000000 0.000000 -1.535515 0.010909 -0.125790 3.433679 -0.249566 -21.697296 -1.594265 -3.374206 32.216896 -0.745503 1.481182 -15.913196 0.000000 0.000000 0.000000 2.773193 10.198025 -3.326333 -7.935612 -18.134902 -1.314165 9.050301 6.376690 0.337113 0.000000 0.000000 0.000000 -13.027028 -7.664691 -1.651235 13.683351 11.069440 -1.409025 -12.344088 -0.762854 0.366893 0.000000 0.000000 0.000000 
0.000124 0.955941 0.000394 -0.877002 5.824642 -0.894783 6.900406 -0.041809 5.630467 -5.639132 0.449562 -5.096416 9.077004 20.091735 36.232161 0.000000 0.000000 0.000000 -4.553673 -0.558831 8.457906 2.411542 -0.436828 -7.227901 -0.068485 -8.726176 30.873481 0.000000 0.000000 0.000000 -1.651545 -0.008631 0.551153 3.503356 -0.274705 -21.555447 -1.517720 -3.417778 32.180773 -0.696438 1.433626 -15.569710 0.000000 0.000000 0.000000 2.032905 10.857439 -3.647821 -8.238817 -18.173566 -1.319966 9.340212 5.744944 0.325357 0.000000 0.000000 0.000000 -12.707875 -7.858556 -1.728792 14.336813 11.211170 -1.433900 -12.863667 -0.989881 0.404883 0.000000 0.000000 0.000000 
0.000138 0.955412 0.000235 -0.916001 6.083040 -0.778456 6.979868 -0.064179 5.234697 -5.925137 0.468579 -4.626388 9.613899 20.613833 35.488871 0.000000 0.000000 0.000000 -4.611899 -0.533776 8.120092 2.378253 -0.427773 -6.864180 0.370380 -8.111218 31.027697 0.000000 0.000000 0.000000 -1.688332 -0.009390 0.612390 3.533687 -0.273420 -21.629726 -1.506341 -3.465546 32.039764 -0.530138 1.322792 -15.442888 0.000000 0.000000 0.000000 2.135307 10.973051 -3.663890 -9.135906 -17.862977 -1.312029 9.042163 4.739333 0.267478 0.000000 0.000000 0.000000 -12.385276 -7.892667 -1.770670 15.109468 10.510063 -1.505132 -12.496517 -0.035584 0.322135 0.000000 0.000000 0.000000 
0.000194 0.954664 0.000161 -0.866227 5.953750 -0.384494 7.076006 -0.081093 4.882349 -6.144145 0.486953 -4.369297 9.053800 20.047699 34.148522 0.000000 0.000000 0.000000 -4.919832 -0.450212 7.393610 2.656284 -0.433265 -6.408997 0.701840 -7.665304 30.933992 0.000000 0.000000 0.000000 -1.646648 -0.003964 0.473883 3.514673 -0.268225 -21.676999 -1.639374 -3.223025 31.850249 -0.627080 1.415428 -15.259097 0.000000 0.000000 0.000000 1.711260 11.009371 -3.727956 -9.617127 -17.204302 -1.316420 8.944393 3.522580 0.210859 0.000000 0.000000 0.000000 -11.332443 -7.931302 -1.875668 15.542044 10.074110 -1.553988 -12.384872 1.120993 0.232583 0.000000 0.000000 0.000000 
0.000169 0.954707 0.000024 -0.871292 6.018668 -0.341885 7.326876 -0.102377 4.844865 -6.658685 0.507418 -4.551167 9.413147 20.403794 34.606320 0.000000 0.000000 0.000000 -4.976817 -0.445105 7.364542 2.775999 -0.441914 -6.427390 0.710087 -7.644897 30.948258 0.000000 0.000000 0.000000 -1.603084 -0.004000 0.469384 3.428983 -0.240258 -21.756097 -1.646073 -3.261998 32.197069 -0.599293 1.422339 -15.803935 0.000000 0.000000 0.000000 1.145939 10.968287 -3.795707 -10.177711 -17.225132 -1.333332 9.217965 2.952368 0.197196 0.000000 0.000000 0.000000 -10.576205 -7.845585 -1.923898 16.301674 10.152935 -1.607145 -12.729185 1.624283 0.200196 0.000000 0.000000 0.000000 
